<?xml version="1.0" encoding="utf-8"?>
<!-- Generator: Adobe Illustrator 17.1.0, SVG Export Plug-In . SVG Version: 6.00 Build 0)  -->
<!DOCTYPE svg PUBLIC "-//W3C//DTD SVG 1.1//EN" "http://www.w3.org/Graphics/SVG/1.1/DTD/svg11.dtd">
<svg version="1.1" xmlns="http://www.w3.org/2000/svg" xmlns:xlink="http://www.w3.org/1999/xlink" x="0px" y="0px"
	 viewBox="0 0 346.607 131.667" enable-background="new 0 0 346.607 131.667" xml:space="preserve">
<g id="Layer_2">
</g>
<g id="Layer_1">
	<g>
		<path fill-rule="evenodd" clip-rule="evenodd" fill="#777777" d="M11.411,83.812c0.699,0,1.255,0.556,1.255,1.255
			c0,0.699-0.556,1.255-1.255,1.255c-0.699,0-1.255-0.556-1.255-1.255C10.157,84.368,10.713,83.812,11.411,83.812L11.411,83.812z
			 M18.924,92.596H3.899V77.57h15.025V92.596L18.924,92.596z M5.169,85.718c0.302,2.954,2.653,5.305,5.607,5.607H5.169V85.718
			L5.169,85.718z M5.169,84.463c0.334-3.161,3.002-5.638,6.242-5.638c3.446,0,6.258,2.811,6.258,6.258
			c0,3.24-2.478,5.908-5.639,6.242h5.654V78.809H5.169V84.463L5.169,84.463z M11.411,90.086c-2.764,0-5.003-2.24-5.003-5.003
			c0-2.764,2.24-5.003,5.003-5.003c2.764,0,5.003,2.24,5.003,5.003C16.415,87.846,14.175,90.086,11.411,90.086L11.411,90.086z"/>
		<path fill-rule="evenodd" clip-rule="evenodd" fill="#777777" d="M58.578,83.812c0.699,0,1.255,0.556,1.255,1.255
			c0,0.699-0.556,1.255-1.255,1.255c-0.699,0-1.255-0.556-1.255-1.255C57.324,84.368,57.88,83.812,58.578,83.812L58.578,83.812z
			 M61.723,83.812c0.699,0,1.255,0.556,1.255,1.255c0,0.699-0.556,1.255-1.255,1.255c-0.699,0-1.255-0.556-1.255-1.255
			C60.469,84.368,61.024,83.812,61.723,83.812L61.723,83.812z M55.481,83.812c0.699,0,1.255,0.556,1.255,1.255
			c0,0.699-0.556,1.255-1.255,1.255c-0.699,0-1.255-0.556-1.255-1.255C54.227,84.368,54.782,83.812,55.481,83.812L55.481,83.812z
			 M66.091,92.596H51.066V77.57h15.025V92.596L66.091,92.596z M52.336,85.718c0.302,2.954,2.653,5.305,5.607,5.607h-5.607V85.718
			L52.336,85.718z M52.336,84.463c0.334-3.161,3.002-5.638,6.242-5.638c3.447,0,6.258,2.811,6.258,6.258
			c0,3.24-2.478,5.908-5.639,6.242h5.654V78.809H52.336V84.463L52.336,84.463z M58.578,90.086c-2.764,0-5.003-2.24-5.003-5.003
			c0-2.764,2.24-5.003,5.003-5.003c2.764,0,5.003,2.24,5.003,5.003C63.582,87.846,61.342,90.086,58.578,90.086L58.578,90.086z"/>
		<path fill-rule="evenodd" clip-rule="evenodd" fill="#777777" d="M42.471,92.593H27.445V77.567h15.026V92.593L42.471,92.593z
			 M28.71,85.712c0.31,2.963,2.653,5.306,5.616,5.604H28.71V85.712L28.71,85.712z M28.71,84.46c0.335-3.161,3.012-5.641,6.248-5.641
			c3.446,0,6.261,2.814,6.261,6.261c0,3.236-2.479,5.913-5.641,6.236h5.653V78.807H28.71V84.46L28.71,84.46z M34.958,90.089
			c-2.765,0-5.009-2.244-5.009-5.009c0-2.765,2.244-5.009,5.009-5.009c2.765,0,5.009,2.244,5.009,5.009
			C39.966,87.845,37.722,90.089,34.958,90.089L34.958,90.089z M36.817,83.828c0.694,0,1.252,0.558,1.252,1.252
			c0,0.694-0.558,1.252-1.252,1.252c-0.707,0-1.252-0.558-1.252-1.252C35.565,84.386,36.111,83.828,36.817,83.828L36.817,83.828z
			 M33.086,83.828c0.694,0,1.252,0.558,1.252,1.252c0,0.694-0.558,1.252-1.252,1.252c-0.707,0-1.252-0.558-1.252-1.252
			C31.834,84.386,32.379,83.828,33.086,83.828L33.086,83.828z"/>
		<path fill-rule="evenodd" clip-rule="evenodd" fill="#777777" d="M91.375,92.588H76.35V77.562h15.025V92.588L91.375,92.588z
			 M77.621,85.71c0.302,2.954,2.652,5.305,5.607,5.607h-5.607V85.71L77.621,85.71z M77.621,84.455
			c0.333-3.161,3.002-5.638,6.242-5.638c3.447,0,6.258,2.811,6.258,6.258c0,3.24-2.478,5.909-5.639,6.242h5.654V78.801H77.621
			V84.455L77.621,84.455z M83.863,90.078c-2.764,0-5.003-2.24-5.003-5.003c0-2.764,2.239-5.003,5.003-5.003s5.003,2.239,5.003,5.003
			C88.866,87.838,86.626,90.078,83.863,90.078L83.863,90.078z"/>
		<path fill-rule="evenodd" clip-rule="evenodd" fill="#777777" d="M102.063,82.39l4.252,1.984l4.19-1.959
			c-0.88-1.401-2.455-2.343-4.228-2.343C104.506,80.072,102.956,81.001,102.063,82.39L102.063,82.39z M100.043,81.448l0.88,0.409
			c1.091-1.81,3.087-3.037,5.356-3.037c2.269,0,4.277,1.24,5.368,3.062l0.917-0.421v-2.653h-12.521V81.448L100.043,81.448z
			 M98.766,80.853l-2.963-1.364l-0.546,1.14l3.509,1.612v5.653l-3.509,1.636l0.546,1.14l2.963-1.389v3.31h15.026v-3.347l3.037,1.426
			l0.496-1.14l-3.533-1.674v-5.579l3.558-1.649l-0.57-1.14l-2.988,1.389v-3.31H98.766V80.853L98.766,80.853z M100.377,82.985
			l-0.335-0.149v1.624C100.092,83.952,100.204,83.456,100.377,82.985L100.377,82.985z M101.53,83.518l3.322,1.55l-3.335,1.55
			c-0.161-0.483-0.236-0.992-0.236-1.537C101.282,84.535,101.369,84.014,101.53,83.518L101.53,83.518z M100.043,87.299l0.31-0.149
			c-0.161-0.446-0.26-0.93-0.31-1.438V87.299L100.043,87.299z M100.886,88.291l-0.843,0.397v2.628h5.604
			C103.625,91.118,101.878,89.952,100.886,88.291L100.886,88.291z M102.051,87.758l4.265-1.996l4.215,1.959
			c-0.88,1.426-2.455,2.368-4.252,2.368C104.493,90.089,102.931,89.159,102.051,87.758L102.051,87.758z M112.564,88.663
			l-0.893-0.409c-0.992,1.674-2.74,2.864-4.773,3.062h5.666V88.663L112.564,88.663z M112.192,87.113l0.372,0.173v-4.438
			l-0.384,0.174c0.235,0.657,0.36,1.339,0.36,2.058C112.539,85.799,112.415,86.481,112.192,87.113L112.192,87.113z M111.051,86.58
			l-3.248-1.513l3.236-1.512c0.161,0.483,0.248,1.004,0.248,1.525C111.287,85.613,111.2,86.109,111.051,86.58L111.051,86.58z"/>
		<path fill-rule="evenodd" clip-rule="evenodd" fill="#777777" d="M138.546,92.596h-15.026V77.571h15.026V92.596L138.546,92.596z
			 M124.785,85.716c0.31,2.963,2.653,5.306,5.616,5.604h-5.616V85.716L124.785,85.716z M124.785,84.464
			c0.335-3.161,3.013-5.641,6.248-5.641c3.446,0,6.261,2.814,6.261,6.261c0,3.236-2.48,5.913-5.641,6.236h5.653V78.811h-12.521
			V84.464L124.785,84.464z M131.034,90.092c-2.765,0-5.009-2.244-5.009-5.009c0-2.765,2.244-5.009,5.009-5.009
			c2.764,0,4.996,2.244,4.996,5.009C136.03,87.848,133.798,90.092,131.034,90.092L131.034,90.092z M123.583,93.836h15.013v1.24
			h-15.013V93.836L123.583,93.836z"/>
		<path fill-rule="evenodd" clip-rule="evenodd" fill="#777777" d="M163.851,92.596h-15.026V77.571h15.026V92.596L163.851,92.596z
			 M150.09,85.716c0.31,2.963,2.653,5.306,5.616,5.604h-5.616V85.716L150.09,85.716z M150.09,84.464
			c0.335-3.161,3.012-5.641,6.248-5.641c3.446,0,6.261,2.814,6.261,6.261c0,3.236-2.479,5.913-5.641,6.236h5.653V78.811H150.09
			V84.464L150.09,84.464z M156.338,90.092c-2.765,0-5.009-2.244-5.009-5.009c0-2.765,2.244-5.009,5.009-5.009
			c2.765,0,4.996,2.244,4.996,5.009C161.334,87.848,159.103,90.092,156.338,90.092L156.338,90.092z M148.9,93.836h15.013v1.24H148.9
			V93.836L148.9,93.836z M148.9,96.34h15.013v1.24H148.9V96.34L148.9,96.34z"/>
		<path fill-rule="evenodd" clip-rule="evenodd" fill="#777777" d="M171.53,77.586h15.009v15.009H171.53V77.586L171.53,77.586z
			 M172.784,78.841h12.5v12.5h-12.5V78.841L172.784,78.841z"/>
		<path fill-rule="evenodd" clip-rule="evenodd" fill="#777777" d="M219.165,77.475h15.009v15.009h-15.009V77.475L219.165,77.475z
			 M232.919,78.793c-1.493,1.779-3.717,2.922-6.21,2.922c-2.494,0-4.749-1.175-6.226-2.986h12.436V78.793L232.919,78.793z
			 M220.419,80.524c1.699,1.541,3.955,2.43,6.258,2.43c2.319,0,4.527-0.858,6.242-2.367v10.642h-12.5V80.524L220.419,80.524z"/>
		<path fill-rule="evenodd" clip-rule="evenodd" fill="#777777" d="M245.86,77.475h15.001v15.001H245.86V77.475L245.86,77.475z
			 M247.112,78.727h12.497v12.497h-12.497V78.727L247.112,78.727z M252.728,80.586h1.24v8.765h-1.24V80.586L252.728,80.586z
			 M250.237,80.586h1.24v8.765h-1.24V80.586L250.237,80.586z M255.258,80.586h1.24v8.765h-1.24V80.586L255.258,80.586z"/>
		<path fill-rule="evenodd" clip-rule="evenodd" fill="#777777" d="M268.134,77.475h15.013v15.001h-15.013V77.475L268.134,77.475z
			 M269.386,78.727h12.497v12.497h-12.497V78.727L269.386,78.727z M271.246,85.582v-1.24h8.765v1.24H271.246L271.246,85.582z"/>
		<path fill-rule="evenodd" clip-rule="evenodd" fill="#777777" d="M293.154,77.475h15.009v15.009h-15.009V77.475L293.154,77.475z
			 M301.349,78.729l-6.941,6.941v-1.795l5.146-5.146H301.349L301.349,78.729z M294.408,87.417l8.688-8.688h3.812v12.5h-12.5V87.417
			L294.408,87.417z M297.807,78.729l-3.399,3.399v-3.399H297.807L297.807,78.729z"/>
		<path fill-rule="evenodd" clip-rule="evenodd" fill="#777777" d="M196.238,77.578h15.026v3.298l2.975-1.389l0.545,1.153
			l-3.521,1.636v5.616l3.521,1.636l-0.521,1.141l-3-1.389v3.298h-15.026v-3.31l-3.013,1.401l-0.521-1.128l3.533-1.649v-5.628
			l-3.521-1.636l0.521-1.141l3,1.413V77.578L196.238,77.578z M202.275,85.079l-4.773,2.219V82.86L202.275,85.079L202.275,85.079z
			 M209.999,81.471l-6.248,2.913l-6.248-2.889v-2.678h12.496V81.471L209.999,81.471z M205.251,85.079l4.748-2.207v4.426
			L205.251,85.079L205.251,85.079z M197.502,88.686l6.261-2.913l6.236,2.913v2.628h-12.496V88.686L197.502,88.686z"/>
	</g>
	<g>
		<path fill-rule="evenodd" clip-rule="evenodd" fill="#777777" d="M6.09,56.569h11.394l0.601,2.961L7.277,59.515
			c-1.699,0-3.247,1.308-3.638,3.187L2.813,66.61h18.249l-2.375-11.244H6.36L6.09,56.569L6.09,56.569z M18.326,60.703l0.932,4.735
			H4.316l0.511-2.601c0.241-1.233,1.007-2.135,2.601-2.135H18.326L18.326,60.703z"/>
		<path fill-rule="evenodd" clip-rule="evenodd" fill="#777777" d="M76.444,56.569h11.394l0.601,2.961l-10.808-0.015
			c-1.699,0-3.247,1.308-3.638,3.187l-0.827,3.908h18.249l-2.375-11.244H76.715L76.444,56.569L76.444,56.569z M88.68,60.703
			l0.932,4.735H74.67l0.511-2.601c0.24-1.233,1.007-2.135,2.601-2.135H88.68L88.68,60.703z M78.744,61.89
			c0.661,0,1.188,0.526,1.188,1.188c0,0.661-0.526,1.188-1.188,1.188c-0.661,0-1.188-0.526-1.188-1.188
			C77.557,62.416,78.083,61.89,78.744,61.89L78.744,61.89z M82.292,61.89c0.661,0,1.188,0.526,1.188,1.188
			c0,0.661-0.526,1.188-1.188,1.188c-0.661,0-1.188-0.526-1.188-1.188C81.104,62.416,81.63,61.89,82.292,61.89L82.292,61.89z
			 M85.839,61.89c0.661,0,1.188,0.526,1.188,1.188c0,0.661-0.526,1.188-1.188,1.188c-0.661,0-1.188-0.526-1.188-1.188
			C84.652,62.416,85.178,61.89,85.839,61.89L85.839,61.89z"/>
		<path fill-rule="evenodd" clip-rule="evenodd" fill="#777777" d="M53.548,56.569h11.394l0.601,2.961l-10.808-0.015
			c-1.699,0-3.247,1.308-3.638,3.187l-0.827,3.908H68.52l-2.375-11.244H53.819L53.548,56.569L53.548,56.569z M65.784,60.703
			l0.932,4.735H51.775l0.511-2.601c0.241-1.233,1.007-2.135,2.601-2.135H65.784L65.784,60.703z M57.622,61.89
			c0.661,0,1.188,0.526,1.188,1.188c0,0.661-0.526,1.188-1.188,1.188c-0.661,0-1.188-0.526-1.188-1.188
			C56.434,62.416,56.961,61.89,57.622,61.89L57.622,61.89z M61.169,61.89c0.661,0,1.188,0.526,1.188,1.188
			c0,0.661-0.526,1.188-1.188,1.188c-0.661,0-1.188-0.526-1.188-1.188C59.982,62.416,60.508,61.89,61.169,61.89L61.169,61.89z"/>
		<path fill-rule="evenodd" clip-rule="evenodd" fill="#777777" d="M28.826,56.569H40.22l0.601,2.961l-10.808-0.015
			c-1.699,0-3.247,1.308-3.638,3.187l-0.827,3.908h18.249l-2.375-11.244H29.096L28.826,56.569L28.826,56.569z M41.062,60.703
			l0.932,4.735H27.052l0.511-2.601c0.241-1.233,1.007-2.135,2.601-2.135H41.062L41.062,60.703z M34.673,61.89
			c0.661,0,1.188,0.526,1.188,1.187c0,0.661-0.526,1.188-1.188,1.188c-0.661,0-1.188-0.526-1.188-1.188
			C33.485,62.416,34.012,61.89,34.673,61.89L34.673,61.89z"/>
		<path fill-rule="evenodd" clip-rule="evenodd" fill="#777777" d="M104.453,59.238l-9.771-4.57l-0.496,1.052l7.501,3.517
			l-0.12-0.015c-1.699,0-3.247,1.308-3.638,3.187l-0.361,1.684l-3.367,1.578l0.481,1.052l2.586-1.203l-0.165,0.797h18.249
			l-0.18-0.782l2.616,1.203l0.496-1.067l-3.412-1.578l-1.308-6.178l4.72-2.195l-0.481-1.082l-4.479,2.089l-0.346-1.653h-12.326
			l-0.27,1.203h11.394l0.21,1.082l-4.029,1.879H104.453L104.453,59.238z M113.171,63.297l-5.577-2.601l0.601-0.286h4.419
			L113.171,63.297L113.171,63.297z M106.211,61.343l7.245,3.382l0.09,0.421H98.605l0.045-0.271L106.211,61.343L106.211,61.343z
			 M104.227,60.411l0.601,0.286l-5.892,2.766l0.18-0.917c0.241-1.233,1.007-2.135,2.601-2.135H104.227L104.227,60.411z
			 M110.721,59.238l1.503-0.691l0.15,0.691H110.721L110.721,59.238z"/>
		<path fill-rule="evenodd" clip-rule="evenodd" fill="#777777" d="M129.316,68.002l2.134,0.767l2.105-0.767l-0.782-1.683h-2.661
			L129.316,68.002L129.316,68.002z M128.188,67.596l-2.495-0.917l-0.346,0.902l2.435,0.887l-0.917,1.969l-1.518,0.556l0.331,0.902
			l5.772-2.104l5.712,2.089l0.346-0.902l-1.488-0.541l-0.917-1.969l2.39-0.872l-0.346-0.917l-2.465,0.902l-0.586-1.263h6.283
			l-2.375-11.244h-12.326l-0.271,1.203h11.394l0.601,2.961l-10.808-0.015c-1.699,0-3.247,1.308-3.638,3.187l-0.827,3.908h6.659
			L128.188,67.596L128.188,67.596z M128.91,68.889l1.128,0.391l-1.593,0.586L128.91,68.889L128.91,68.889z M134.441,69.866
			l-1.578-0.586l1.112-0.406L134.441,69.866L134.441,69.866z M137.643,60.411l0.932,4.735h-14.942l0.511-2.601
			c0.241-1.233,1.007-2.135,2.601-2.135H137.643L137.643,60.411z"/>
	</g>
	<g>
		<path fill-rule="evenodd" clip-rule="evenodd" fill="#777777" d="M20.582,33.505c-0.641-0.171-1.269-0.356-1.967-0.356
			c-0.969,0-1.739,0.542-2.708,0.542c-0.969,0-1.739-0.542-2.708-0.542c-0.998,0-1.768,0.542-2.708,0.542
			c-0.969,0-1.768-0.542-2.737-0.542c-0.684,0-1.311,0.185-1.939,0.356l1.497,7.484h11.775L20.582,33.505L20.582,33.505z
			 M5.6,32.436c0.699-0.199,1.383-0.428,2.153-0.428c0.969,0,1.768,0.57,2.737,0.57c0.941,0,1.711-0.57,2.708-0.57
			c0.969,0,1.739,0.57,2.708,0.57c0.969,0,1.739-0.57,2.708-0.57c0.784,0,1.468,0.228,2.181,0.428l0.2-0.984h1.454l-2.238,10.663
			H6.17L3.932,31.453h1.483L5.6,32.436L5.6,32.436z"/>
		<path fill-rule="evenodd" clip-rule="evenodd" fill="#777777" d="M44.047,33.505c-0.641-0.171-1.269-0.356-1.967-0.356
			c-0.969,0-1.739,0.542-2.708,0.542c-0.969,0-1.739-0.542-2.708-0.542c-0.998,0-1.768,0.542-2.709,0.542
			c-0.969,0-1.768-0.542-2.737-0.542c-0.684,0-1.311,0.185-1.939,0.356l1.497,7.484h11.775L44.047,33.505L44.047,33.505z
			 M29.065,32.436c0.698-0.199,1.383-0.428,2.152-0.428c0.969,0,1.768,0.57,2.737,0.57c0.941,0,1.711-0.57,2.709-0.57
			c0.969,0,1.739,0.57,2.708,0.57c0.969,0,1.739-0.57,2.708-0.57c0.784,0,1.468,0.228,2.181,0.428l0.199-0.984h1.454l-2.238,10.663
			H29.636l-2.238-10.663h1.483L29.065,32.436L29.065,32.436z M36.663,35.687c0.784,0,1.397,0.613,1.397,1.397
			c0,0.784-0.613,1.397-1.397,1.397c-0.784,0-1.397-0.613-1.397-1.397C35.266,36.299,35.879,35.687,36.663,35.687L36.663,35.687z"/>
		<path fill-rule="evenodd" clip-rule="evenodd" fill="#777777" d="M114.969,33.505c-0.641-0.171-1.269-0.356-1.967-0.356
			c-0.969,0-1.739,0.542-2.708,0.542c-0.969,0-1.739-0.542-2.708-0.542c-0.998,0-1.768,0.542-2.708,0.542
			c-0.969,0-1.768-0.542-2.737-0.542c-0.684,0-1.311,0.185-1.939,0.356l1.497,7.484h11.775L114.969,33.505L114.969,33.505z
			 M99.987,32.436c0.699-0.2,1.383-0.428,2.152-0.428c0.969,0,1.768,0.57,2.737,0.57c0.941,0,1.711-0.57,2.708-0.57
			c0.969,0,1.739,0.57,2.708,0.57c0.969,0,1.739-0.57,2.708-0.57c0.784,0,1.468,0.228,2.181,0.428l0.2-0.984h1.454l-2.238,10.663
			h-14.041l-2.238-10.663h1.483L99.987,32.436L99.987,32.436z M100.558,42.686h14.027v1.112h-14.027V42.686L100.558,42.686z"/>
		<path fill-rule="evenodd" clip-rule="evenodd" fill="#777777" d="M66.688,33.506c-0.641-0.171-1.269-0.356-1.967-0.356
			c-0.969,0-1.739,0.542-2.708,0.542c-0.969,0-1.739-0.542-2.708-0.542c-0.998,0-1.768,0.542-2.709,0.542
			c-0.969,0-1.768-0.542-2.737-0.542c-0.684,0-1.311,0.185-1.939,0.356l1.497,7.484h11.775L66.688,33.506L66.688,33.506z
			 M51.706,32.436c0.698-0.2,1.383-0.428,2.152-0.428c0.969,0,1.768,0.57,2.737,0.57c0.941,0,1.711-0.57,2.709-0.57
			c0.969,0,1.739,0.57,2.708,0.57c0.969,0,1.739-0.57,2.708-0.57c0.784,0,1.468,0.228,2.181,0.428l0.199-0.984h1.454l-2.238,10.663
			H52.276l-2.238-10.663h1.483L51.706,32.436L51.706,32.436z M61.271,35.687c0.784,0,1.397,0.613,1.397,1.397
			c0,0.784-0.613,1.397-1.397,1.397c-0.784,0-1.397-0.613-1.397-1.397C59.874,36.299,60.487,35.687,61.271,35.687L61.271,35.687z
			 M57.323,35.687c0.784,0,1.397,0.613,1.397,1.397c0,0.784-0.613,1.397-1.397,1.397c-0.784,0-1.397-0.613-1.397-1.397
			C55.926,36.299,56.538,35.687,57.323,35.687L57.323,35.687z"/>
		<path fill-rule="evenodd" clip-rule="evenodd" fill="#777777" d="M179.692,27.838L179.692,27.838L179.692,27.838z M186.891,34.609
			c-0.641-0.171-1.269-0.356-1.967-0.356c-0.428,0-0.798,0.1-1.169,0.214l-4.063,4.063c-0.257,0.257-0.741,0.399-0.998,0.086
			c-0.285-0.257-0.257-0.656,0-0.912l2.509-2.48l-0.2-0.199l-2.851,2.879c-0.257,0.228-0.684,0.228-0.941-0.029
			c-0.228-0.228-0.257-0.627,0-0.912l2.68-2.68c-0.114-0.014-0.228-0.014-0.356-0.014l-2.523,2.495
			c-0.257,0.285-0.656,0.285-0.884,0c-0.257-0.228-0.285-0.656,0-0.912l1.083-1.083c-0.114,0.014-0.242,0.029-0.356,0.029
			l-0.898,0.912c-0.285,0.257-0.713,0.228-0.969-0.029c-0.228-0.257-0.257-0.656,0-0.941l0.257-0.257
			c-0.385-0.114-0.77-0.228-1.183-0.228c-0.684,0-1.311,0.185-1.939,0.356l1.497,7.484h11.775L186.891,34.609L186.891,34.609z
			 M182.23,27.496l0.711-1.682l4.706,3.678l-1.654,1.682l0,0c0.314,0.285,0.285,0.77-0.029,1.083l-0.869,0.869
			c0.713,0.029,1.34,0.243,2.01,0.413l0.199-0.984h1.454l-2.238,10.663h-14.041l-2.238-10.663h1.483l0.185,0.984
			c0.698-0.2,1.383-0.428,2.152-0.428c0.727,0,1.369,0.342,2.053,0.499l3.093-3.093l-0.171-0.171l-1.169,1.169
			c-0.399,0.428-1.055,0.428-1.454,0l-0.199-0.2l3.478-3.478C180.377,27.153,181.432,27.039,182.23,27.496L182.23,27.496z
			 M178.766,33.212l0.214-0.214l-0.171-0.171l-0.513,0.527C178.452,33.297,178.609,33.255,178.766,33.212L178.766,33.212z"/>
		<g>
			<path fill-rule="evenodd" clip-rule="evenodd" fill="#777777" d="M139.61,33.505c-0.641-0.171-1.269-0.356-1.967-0.356
				c-0.969,0-1.739,0.542-2.708,0.542c-0.969,0-1.739-0.542-2.708-0.542c-0.998,0-1.768,0.542-2.708,0.542
				c-0.969,0-1.768-0.542-2.737-0.542c-0.684,0-1.311,0.185-1.939,0.356l1.497,7.484h11.775L139.61,33.505L139.61,33.505z
				 M124.628,32.436c0.699-0.199,1.383-0.428,2.152-0.428c0.969,0,1.768,0.57,2.737,0.57c0.941,0,1.711-0.57,2.708-0.57
				c0.969,0,1.739,0.57,2.708,0.57c0.969,0,1.739-0.57,2.708-0.57c0.784,0,1.468,0.228,2.181,0.428l0.2-0.984h1.454l-2.238,10.663
				h-14.041l-2.238-10.663h1.483L124.628,32.436L124.628,32.436z M125.212,42.686h14.027v1.112h-14.027V42.686L125.212,42.686z
				 M125.212,44.382h14.027v1.112h-14.027V44.382L125.212,44.382z"/>
			<path display="none" fill="#777777" d="M203.902,237.41h-17.506v-1.848h17.506V237.41z M186.896,236.91h16.506v-0.848h-16.506
				V236.91z M203.902,235.353h-17.506v-1.848h17.506V235.353z M186.896,234.853h16.506v-0.848h-16.506V234.853z M203.855,233.314
				h-17.429l-2.818-13.427h2.313l0.212,1.126l0.022-0.007c0.752-0.219,1.529-0.445,2.392-0.445c0.627,0,1.191,0.182,1.736,0.357
				c0.532,0.172,1.034,0.334,1.583,0.334c0.522,0,1.004-0.158,1.515-0.325c0.548-0.181,1.115-0.366,1.769-0.366
				c0.627,0,1.183,0.182,1.72,0.358c0.522,0.171,1.016,0.333,1.564,0.333c0.547,0,1.041-0.162,1.563-0.333
				c0.537-0.177,1.092-0.358,1.72-0.358c0.868,0,1.643,0.222,2.393,0.437l0.061,0.018l0.229-1.128h2.276L203.855,233.314z
				 M186.832,232.814h16.617l2.608-12.427h-1.25l-0.255,1.256l-0.581-0.164c-0.75-0.215-1.458-0.418-2.255-0.418
				c-0.547,0-1.041,0.162-1.563,0.333c-0.537,0.177-1.092,0.358-1.72,0.358s-1.183-0.182-1.72-0.358
				c-0.522-0.171-1.016-0.333-1.564-0.333c-0.574,0-1.079,0.166-1.613,0.341c-0.525,0.173-1.068,0.351-1.67,0.351
				c-0.627,0-1.191-0.182-1.736-0.357c-0.532-0.172-1.034-0.334-1.583-0.334c-0.792,0-1.501,0.207-2.252,0.426l-0.552,0.158
				l-0.237-1.258h-1.282L186.832,232.814z M202.492,231.949h-14.686l-1.9-9.503l0.386-0.105c0.713-0.195,1.451-0.397,2.255-0.397
				c0.625,0,1.188,0.173,1.732,0.34c0.533,0.163,1.036,0.317,1.586,0.317c0.524,0,1.007-0.15,1.518-0.31
				c0.547-0.171,1.114-0.348,1.766-0.348c0.625,0,1.18,0.173,1.716,0.34c0.523,0.163,1.018,0.317,1.567,0.317
				c0.549,0,1.044-0.154,1.567-0.317c0.536-0.167,1.09-0.34,1.716-0.34c0.808,0,1.542,0.197,2.251,0.388l0.425,0.113
				L202.492,231.949z M188.217,231.449h13.865l1.729-8.643c-0.7-0.188-1.362-0.363-2.094-0.363c-0.549,0-1.044,0.154-1.567,0.317
				c-0.536,0.167-1.09,0.34-1.716,0.34s-1.18-0.173-1.716-0.34c-0.523-0.163-1.018-0.317-1.567-0.317
				c-0.576,0-1.082,0.157-1.617,0.324c-0.524,0.164-1.067,0.333-1.667,0.333c-0.625,0-1.188-0.173-1.732-0.34
				c-0.533-0.163-1.036-0.317-1.586-0.317c-0.715,0-1.37,0.174-2.059,0.362L188.217,231.449z"/>
		</g>
		<path fill-rule="evenodd" clip-rule="evenodd" fill="#777777" d="M90.329,33.505c-0.641-0.171-1.269-0.356-1.967-0.356
			c-0.969,0-1.739,0.542-2.708,0.542c-0.969,0-1.739-0.542-2.708-0.542c-0.998,0-1.768,0.542-2.709,0.542
			c-0.969,0-1.768-0.542-2.737-0.542c-0.684,0-1.311,0.185-1.939,0.356l1.497,7.484h11.775L90.329,33.505L90.329,33.505z
			 M75.347,32.436c0.698-0.2,1.383-0.428,2.152-0.428c0.969,0,1.768,0.57,2.737,0.57c0.941,0,1.711-0.57,2.709-0.57
			c0.969,0,1.739,0.57,2.708,0.57c0.969,0,1.739-0.57,2.708-0.57c0.784,0,1.468,0.228,2.181,0.428l0.199-0.984h1.454l-2.238,10.663
			H75.917l-2.238-10.663h1.483L75.347,32.436L75.347,32.436z M82.945,35.686c0.784,0,1.397,0.613,1.397,1.397
			c0,0.784-0.613,1.397-1.397,1.397c-0.784,0-1.397-0.613-1.397-1.397C81.548,36.299,82.161,35.686,82.945,35.686L82.945,35.686z
			 M86.879,35.686c0.784,0,1.397,0.613,1.397,1.397c0,0.784-0.613,1.397-1.397,1.397c-0.784,0-1.397-0.613-1.397-1.397
			C85.482,36.299,86.095,35.686,86.879,35.686L86.879,35.686z M78.996,35.686c0.784,0,1.397,0.613,1.397,1.397
			c0,0.784-0.613,1.397-1.397,1.397c-0.784,0-1.397-0.613-1.397-1.397C77.599,36.299,78.212,35.686,78.996,35.686L78.996,35.686z"/>
		<path fill-rule="evenodd" clip-rule="evenodd" fill="#777777" d="M147.964,34.263l-2.266-0.841l-0.371,1.041l2.908,1.069
			l0.984,4.718l-3.892,1.426l0.371,1.026l3.749-1.369l0.385,1.782h14.041l0.371-1.768l3.763,1.369l0.371-1.041l-3.906-1.411
			l0.984-4.747l2.937-1.055l-0.371-1.055l-2.295,0.827l0.385-1.782h-1.454l-0.2,0.984c-0.713-0.2-1.397-0.428-2.181-0.428
			c-0.969,0-1.739,0.57-2.708,0.57c-0.969,0-1.739-0.57-2.708-0.57c-0.998,0-1.768,0.57-2.708,0.57c-0.969,0-1.768-0.57-2.737-0.57
			c-0.77,0-1.454,0.228-2.152,0.428l-0.185-0.984h-1.483L147.964,34.263L147.964,34.263z M156.831,37.485l-7.299-2.651l-0.057-0.328
			c0.627-0.171,1.254-0.356,1.939-0.356c0.969,0,1.768,0.542,2.737,0.542c0.941,0,1.711-0.542,2.708-0.542
			c0.969,0,1.739,0.542,2.708,0.542c0.969,0,1.739-0.542,2.708-0.542c0.699,0,1.326,0.185,1.967,0.356l-0.071,0.299L156.831,37.485
			L156.831,37.485z M163.174,39.794l-4.733-1.725l5.474-1.981L163.174,39.794L163.174,39.794z M156.831,38.654l6.13,2.238
			l-0.214,1.097h-11.775l-0.228-1.126L156.831,38.654L156.831,38.654z M149.789,36.088l5.417,1.981l-4.69,1.711L149.789,36.088
			L149.789,36.088z"/>
		<path fill-rule="evenodd" clip-rule="evenodd" fill="#777777" d="M145,59.095h4.375c1.013,0,1.873,0.706,1.873,1.719l-2.441,2.441
			c-0.338,0.414-0.844,0.675-1.397,0.675H145V59.095L145,59.095z M153.044,59.018l-6.769-4.759l-0.675,0.967l3.776,2.656h-5.572
			v7.245h3.623c0.921,0,1.857-0.491,2.41-1.228l0.583-0.583c0.123,0.276,0.276,0.522,0.476,0.752l-5.296,3.699l0.675,1.896
			l5.603-4.828c0.384,0.184,0.814,0.292,1.259,0.292h2.533c0.86,0,1.627-0.368,2.18-0.952l0.2-0.215l6.846,5.703l0.691-1.896
			l-3.776-2.64h5.465v-7.245h-3.623c-0.921,0-1.873,0.491-2.425,1.228l-0.583,0.583c-0.123-0.246-0.276-0.476-0.445-0.691
			l5.388-3.761l-0.675-0.982l-5.68,3.96c-0.399-0.215-0.844-0.338-1.29-0.338h-2.548c-0.86,0-1.627,0.368-2.164,0.952
			L153.044,59.018L153.044,59.018z M155.576,60.784l-1.535-1.09l0.015-0.015c0.322-0.353,0.798-0.583,1.336-0.583l2.548-0.015
			c0.015,0,0.046,0.015,0.061,0.015L155.576,60.784L155.576,60.784z M157.925,62.411l-1.305-0.906l2.61-1.811
			c0.246,0.246,0.414,0.568,0.491,0.921L157.925,62.411L157.925,62.411z M155.576,62.242l1.489,1.028l-0.046,0.046
			c-0.338,0.368-0.583,0.614-1.136,0.614h-2.732L155.576,62.242L155.576,62.242z M153.182,60.553l1.366,0.952l-2.671,1.873
			c-0.261-0.261-0.46-0.614-0.522-0.998L153.182,60.553L153.182,60.553z M166.076,63.9h-4.39c-1.013,0-1.873-0.706-1.873-1.719
			l2.456-2.425c0.338-0.43,0.829-0.675,1.381-0.675h2.425V63.9L166.076,63.9z"/>
	</g>
	<g>
		<path fill-rule="evenodd" clip-rule="evenodd" fill="#777777" d="M14.081,19.187c-3.498,0-6.351-2.853-6.351-6.351
			c0-3.498,2.853-6.351,6.351-6.351s6.351,2.853,6.351,6.351C20.432,16.334,17.579,19.187,14.081,19.187L14.081,19.187z
			 M14.081,20.65c-4.317,0-7.815-3.498-7.815-7.815c0-4.316,3.498-7.814,7.815-7.814c4.316,0,7.814,3.498,7.814,7.814
			C21.895,17.153,18.397,20.65,14.081,20.65L14.081,20.65z"/>
		<path fill-rule="evenodd" clip-rule="evenodd" fill="#777777" d="M35.548,19.187c-3.495,0-6.349-2.854-6.349-6.349
			c0-3.495,2.854-6.349,6.349-6.349c3.495,0,6.349,2.854,6.349,6.349C41.898,16.333,39.044,19.187,35.548,19.187L35.548,19.187z
			 M35.548,20.652c-4.319,0-7.815-3.495-7.815-7.814c0-4.319,3.495-7.814,7.815-7.814c4.319,0,7.814,3.495,7.814,7.814
			C43.363,17.157,39.868,20.652,35.548,20.652L35.548,20.652z M34.144,15.341l-0.656,1.755h-1.862l3.175-8.501h1.755l3.205,8.501
			h-1.893l-0.656-1.755H34.144L34.144,15.341z M35.671,11.22l-1.023,2.701h2.045L35.671,11.22L35.671,11.22z"/>
		<path fill-rule="evenodd" clip-rule="evenodd" fill="#777777" d="M59.006,19.187c-3.495,0-6.349-2.854-6.349-6.349
			c0-3.495,2.854-6.349,6.349-6.349c3.495,0,6.349,2.854,6.349,6.349C65.356,16.333,62.502,19.187,59.006,19.187L59.006,19.187z
			 M59.006,20.652c-4.319,0-7.814-3.495-7.814-7.814c0-4.319,3.495-7.814,7.814-7.814c4.319,0,7.815,3.495,7.815,7.814
			C66.821,17.157,63.326,20.652,59.006,20.652L59.006,20.652z M58.152,14.318v2.778H56.29V8.594h2.595
			c0.626,0,1.236,0.076,1.755,0.183c0.549,0.153,1.053,0.443,1.45,0.885c0.412,0.427,0.626,1.084,0.626,1.893
			c0,0.839-0.29,1.526-0.839,1.999c-0.549,0.519-1.465,0.763-2.702,0.763H58.152L58.152,14.318z M58.152,12.899h0.809
			c1.053,0,1.603-0.473,1.603-1.389c0-0.977-0.55-1.496-1.603-1.496h-0.809V12.899L58.152,12.899z"/>
		<path fill-rule="evenodd" clip-rule="evenodd" fill="#777777" d="M131.258,19.185c-3.495,0-6.349-2.854-6.349-6.349
			c0-3.495,2.854-6.349,6.349-6.349c3.495,0,6.349,2.854,6.349,6.349C137.607,16.331,134.753,19.185,131.258,19.185L131.258,19.185z
			 M131.258,20.65c-4.319,0-7.814-3.495-7.814-7.815c0-4.319,3.495-7.814,7.814-7.814c4.319,0,7.815,3.495,7.815,7.814
			C139.072,17.155,135.577,20.65,131.258,20.65L131.258,20.65z M130.403,14.316v2.778h-1.862V8.593h2.595
			c0.626,0,1.236,0.076,1.755,0.183c0.549,0.153,1.053,0.443,1.45,0.885c0.412,0.427,0.626,1.084,0.626,1.893
			c0,0.84-0.29,1.526-0.839,1.999c-0.549,0.519-1.465,0.763-2.702,0.763H130.403L130.403,14.316z M130.403,12.897h0.809
			c1.053,0,1.603-0.473,1.603-1.389c0-0.977-0.55-1.496-1.603-1.496h-0.809V12.897L130.403,12.897z M127.045,21.856h8.41v1.801
			h-8.41V21.856L127.045,21.856z"/>
		<path fill-rule="evenodd" clip-rule="evenodd" fill="#777777" d="M82.464,19.187c-3.495,0-6.349-2.854-6.349-6.349
			c0-3.495,2.854-6.349,6.349-6.349c3.495,0,6.349,2.854,6.349,6.349C88.814,16.333,85.96,19.187,82.464,19.187L82.464,19.187z
			 M82.464,20.652c-4.319,0-7.814-3.495-7.814-7.814c0-4.319,3.495-7.814,7.814-7.814c4.319,0,7.815,3.495,7.815,7.814
			C90.279,17.157,86.784,20.652,82.464,20.652L82.464,20.652z M85.608,10.014H82.22v2.228h2.839v1.419H82.22v3.434h-1.862V8.594
			h5.25V10.014L85.608,10.014z"/>
		<path fill-rule="evenodd" clip-rule="evenodd" fill="#777777" d="M155.716,19.185c-3.495,0-6.349-2.854-6.349-6.349
			c0-3.495,2.854-6.349,6.349-6.349c3.495,0,6.349,2.854,6.349,6.349C162.065,16.331,159.211,19.185,155.716,19.185L155.716,19.185z
			 M155.716,20.65c-4.319,0-7.814-3.495-7.814-7.815c0-4.319,3.495-7.814,7.814-7.814c4.319,0,7.815,3.495,7.815,7.814
			C163.53,17.155,160.035,20.65,155.716,20.65L155.716,20.65z M158.86,10.012h-3.388v2.228h2.839v1.419h-2.839v3.434h-1.862V8.593
			h5.25V10.012L158.86,10.012z M151.519,21.856h8.41v1.801h-8.41V21.856L151.519,21.856z"/>
		<path fill-rule="evenodd" clip-rule="evenodd" fill="#777777" d="M100.419,14.667l3.968-1.847l-3.953-1.862
			c-0.183,0.595-0.275,1.236-0.275,1.877C100.16,13.477,100.251,14.087,100.419,14.667L100.419,14.667z M99.076,15.293l-2.473,1.16
			l0.763,1.618l2.473-1.145c1.358,2.244,3.831,3.724,6.67,3.724c2.823,0,5.281-1.48,6.654-3.724l2.518,1.175l0.733-1.648
			l-2.488-1.175c0.26-0.763,0.397-1.587,0.397-2.442c0-0.87-0.153-1.694-0.412-2.488l2.503-1.16l-0.733-1.648l-2.534,1.19
			c-1.389-2.228-3.846-3.709-6.639-3.709c-2.808,0-5.281,1.48-6.655,3.709l-2.488-1.16l-0.763,1.618l2.488,1.145
			c-0.26,0.794-0.397,1.633-0.397,2.503C98.694,13.706,98.832,14.53,99.076,15.293L99.076,15.293z M101.182,16.301l5.311-2.473
			l5.327,2.473c-1.13,1.74-3.098,2.885-5.311,2.885C104.281,19.185,102.312,18.04,101.182,16.301L101.182,16.301z M112.583,14.652
			l-3.953-1.832l3.938-1.847c0.183,0.595,0.29,1.221,0.29,1.862C112.858,13.477,112.751,14.087,112.583,14.652L112.583,14.652z
			 M111.805,9.356l-5.311,2.488l-5.296-2.488c1.145-1.725,3.098-2.869,5.312-2.869C108.707,6.487,110.66,7.631,111.805,9.356
			L111.805,9.356z"/>
		<path fill-rule="evenodd" clip-rule="evenodd" fill="#777777" d="M20.456,117.26l-8.919-15.441l-8.902,15.424L20.456,117.26
			L20.456,117.26z M17.941,115.936l-6.404-11.082L5.15,115.919L17.941,115.936L17.941,115.936z"/>
		<path fill-rule="evenodd" clip-rule="evenodd" fill="#777777" d="M44.59,117.26l-8.919-15.441l-8.902,15.424L44.59,117.26
			L44.59,117.26z M42.075,115.936l-6.404-11.082l-6.388,11.065L42.075,115.936L42.075,115.936z M36.124,111.158l-0.436,0.52
			c-0.151-0.117-0.285-0.218-0.386-0.251c-0.101-0.05-0.251-0.084-0.402-0.084c-0.201,0-0.386,0.05-0.52,0.134
			c-0.134,0.1-0.268,0.252-0.335,0.436c-0.084,0.201-0.134,0.47-0.134,0.771c0,0.335,0.067,0.604,0.168,0.788
			c0.101,0.201,0.251,0.335,0.386,0.386c0.151,0.067,0.302,0.101,0.436,0.101c0.335,0,0.62-0.151,0.855-0.453l0.536,0.419
			c-0.168,0.201-0.335,0.386-0.503,0.486c-0.168,0.117-0.352,0.201-0.52,0.235c-0.168,0.034-0.352,0.067-0.52,0.067
			c-0.268,0-0.52-0.05-0.738-0.134c-0.218-0.101-0.419-0.251-0.57-0.419c-0.168-0.184-0.302-0.419-0.386-0.654
			c-0.084-0.251-0.134-0.536-0.134-0.822c0-0.335,0.067-0.654,0.168-0.922c0.101-0.268,0.268-0.486,0.436-0.654
			c0.184-0.168,0.402-0.302,0.62-0.369c0.218-0.084,0.453-0.134,0.671-0.134c0.151,0,0.318,0.034,0.486,0.067
			c0.168,0.05,0.319,0.134,0.453,0.201c0.134,0.084,0.268,0.201,0.352,0.302L36.124,111.158L36.124,111.158z M37.616,110.806v3.806
			h-0.754v-3.789L37.616,110.806L37.616,110.806z"/>
		<path fill-rule="evenodd" clip-rule="evenodd" fill="#777777" d="M69.469,117.26L60.55,101.82l-8.902,15.424L69.469,117.26
			L69.469,117.26z M63.249,109.532l-3.705,6.404h-1.509l4.46-7.678L63.249,109.532L63.249,109.532z M61.086,115.936l2.917-5.08
			l2.951,5.08H61.086L61.086,115.936z M61.74,106.933l-5.214,9.003l-2.364-0.017l6.388-11.065L61.74,106.933L61.74,106.933z"/>
		<path fill-rule="evenodd" clip-rule="evenodd" fill="#777777" d="M81.644,109.548l2.766,1.291l2.666-1.257l-2.716-4.728
			L81.644,109.548L81.644,109.548z M80.269,108.911l-7.863-3.638l-0.57,1.207l7.762,3.588l-2.381,4.124l-5.382,2.515l0.536,1.207
			l3.688-1.727l-0.603,1.056l17.821,0.017l-0.654-1.09l3.722,1.744l0.57-1.207l-5.465-2.582l-2.314-4.024l7.779-3.621l-0.57-1.207
			l-7.88,3.672l-4.107-7.125L80.269,108.911L80.269,108.911z M80.974,110.705l1.861,0.872l-3.219,1.492L80.974,110.705
			L80.974,110.705z M78.459,115.064l5.918-2.75l5.851,2.733l0.536,0.888l-12.792-0.017L78.459,115.064L78.459,115.064z
			 M89.054,113.002l-3.068-1.425l1.76-0.821L89.054,113.002L89.054,113.002z"/>
	</g>
	<path fill-rule="evenodd" clip-rule="evenodd" fill="#777777" d="M211.11,34.522c-0.641-0.171-1.269-0.356-1.967-0.356
		c-0.969,0-1.739,0.542-2.708,0.542c-0.969,0-1.739-0.542-2.708-0.542c-0.998,0-1.768,0.542-2.708,0.542
		c-0.969,0-1.768-0.542-2.737-0.542c-0.684,0-1.311,0.185-1.939,0.356l1.497,7.484h11.775L211.11,34.522L211.11,34.522z
		 M196.128,33.452c0.699-0.199,1.383-0.428,2.153-0.428c0.969,0,1.768,0.57,2.737,0.57c0.941,0,1.711-0.57,2.708-0.57
		c0.969,0,1.739,0.57,2.708,0.57c0.969,0,1.739-0.57,2.708-0.57c0.784,0,1.468,0.228,2.181,0.428l0.2-0.984h1.454l-2.238,10.663
		h-14.041l-2.238-10.663h1.483L196.128,33.452L196.128,33.452z"/>
	<path fill-rule="evenodd" clip-rule="evenodd" fill="#777777" d="M259.495,33.609c-0.641-0.171-1.269-0.356-1.967-0.356
		c-0.969,0-1.739,0.542-2.708,0.542c-0.969,0-1.739-0.542-2.708-0.542c-0.998,0-1.768,0.542-2.708,0.542
		c-0.969,0-1.768-0.542-2.737-0.542c-0.684,0-1.311,0.185-1.939,0.356l1.497,7.484h11.775L259.495,33.609L259.495,33.609z
		 M244.512,32.54c0.699-0.199,1.383-0.428,2.153-0.428c0.969,0,1.768,0.57,2.737,0.57c0.941,0,1.711-0.57,2.708-0.57
		c0.969,0,1.739,0.57,2.708,0.57c0.969,0,1.739-0.57,2.708-0.57c0.784,0,1.468,0.228,2.181,0.428l0.199-0.984h1.454l-2.238,10.663
		h-14.041l-2.238-10.663h1.483L244.512,32.54L244.512,32.54z"/>
	<path fill-rule="evenodd" clip-rule="evenodd" fill="#777777" d="M284.24,33.609c-0.641-0.171-1.269-0.356-1.967-0.356
		c-0.969,0-1.739,0.542-2.708,0.542c-0.969,0-1.739-0.542-2.708-0.542c-0.998,0-1.767,0.542-2.708,0.542
		c-0.969,0-1.768-0.542-2.737-0.542c-0.684,0-1.311,0.185-1.939,0.356l1.497,7.484h11.775L284.24,33.609L284.24,33.609z
		 M269.257,32.54c0.699-0.199,1.383-0.428,2.153-0.428c0.969,0,1.768,0.57,2.737,0.57c0.941,0,1.711-0.57,2.708-0.57
		c0.969,0,1.739,0.57,2.708,0.57c0.969,0,1.739-0.57,2.708-0.57c0.784,0,1.468,0.228,2.181,0.428l0.2-0.984h1.454l-2.238,10.663
		h-14.041l-2.238-10.663h1.483L269.257,32.54L269.257,32.54z"/>
	<g>
		<text transform="matrix(1 0 0 1 200.0654 40.7484)" fill="#777777" font-family="'Helvetica-Bold'" font-size="6.5987">30</text>
	</g>
	<path fill-rule="evenodd" clip-rule="evenodd" fill="#777777" d="M235.154,33.522c-0.641-0.171-1.269-0.356-1.967-0.356
		c-0.969,0-1.739,0.542-2.708,0.542c-0.969,0-1.739-0.542-2.708-0.542c-0.998,0-1.768,0.542-2.708,0.542
		c-0.969,0-1.768-0.542-2.737-0.542c-0.684,0-1.311,0.185-1.939,0.356l1.497,7.484h11.775L235.154,33.522L235.154,33.522z
		 M220.172,32.452c0.699-0.199,1.383-0.428,2.153-0.428c0.969,0,1.768,0.57,2.737,0.57c0.941,0,1.711-0.57,2.708-0.57
		c0.969,0,1.739,0.57,2.708,0.57c0.969,0,1.739-0.57,2.708-0.57c0.784,0,1.468,0.228,2.181,0.428l0.2-0.984h1.454l-2.238,10.663
		h-14.041l-2.238-10.663h1.483L220.172,32.452L220.172,32.452z"/>
	<g>
		<text transform="matrix(1 0 0 1 224.1103 39.7484)" fill="#777777" font-family="'Helvetica-Bold'" font-size="6.5987">30</text>
	</g>
	<g>
		<text transform="matrix(1 0 0 1 248.2431 39.7484)" fill="#777777" font-family="'Helvetica-Bold'" font-size="6.5987">40</text>
	</g>
	<text transform="matrix(1 0 0 1 272.7929 39.7484)" fill="#777777" font-family="'Helvetica-Bold'" font-size="6.5987">60</text>
	<g>
		<rect x="220.842" y="42.822" fill="#777777" width="13.841" height="1.2"/>
	</g>
</g>
</svg>
