<?xml version="1.0" encoding="utf-8"?>
<!-- Generator: Adobe Illustrator 16.2.1, SVG Export Plug-In . SVG Version: 6.00 Build 0)  -->
<!DOCTYPE svg PUBLIC "-//W3C//DTD SVG 1.1//EN" "http://www.w3.org/Graphics/SVG/1.1/DTD/svg11.dtd">
<svg version="1.1" id="Lager_1" xmlns="http://www.w3.org/2000/svg" xmlns:xlink="http://www.w3.org/1999/xlink" x="0px" y="0px"
	 width="170px" height="70px" viewBox="0 0 170 70" style="enable-background:new 0 0 170 70;" xml:space="preserve">
<path style="fill:#ABADAD;" d="M116.061,15.687c-0.994-1.024-1.493-2.291-1.493-3.798c0-1.476,0.505-2.72,1.515-3.729
	c1.011-1.01,2.314-1.515,3.913-1.515c1.536,0,2.81,0.505,3.819,1.515c1.011,1.01,1.516,2.253,1.516,3.729
	c0,1.507-0.499,2.774-1.493,3.798c-0.995,1.025-2.307,1.537-3.934,1.537C118.336,17.224,117.056,16.712,116.061,15.687z
	 M39.645,51.095c-0.006,7.837,8.807,9.265,12.581,9.265c2.714,0,4.806-0.573,6.286-1.719c1.476-1.144,2.215-2.682,2.215-4.612
	c0-1.838-0.609-3.338-1.831-4.498c-1.221-1.16-3.354-2.253-6.398-3.279c-8.02-2.742-12.028-6.873-12.028-12.389
	c0-3.677,1.424-6.767,4.273-9.269c2.848-2.501,6.637-3.753,11.371-3.753c3.326,0,5.266,0.42,7.249,0.994h8.087v-8.139l8.23-2.441
	v10.58h13.345h0.581h6.835l0.541,9.529c1.115-3.075,2.819-5.471,5.111-7.189c2.289-1.717,4.775-2.577,7.46-2.577
	c0.571,0,1.251,0,2.261,0.237h8.34v16.135c0.863-4.095,2.601-7.612,5.215-10.55c3.903-4.387,8.734-6.579,14.492-6.579
	c3.073,0,5.824,0.603,8.251,1.809c2.426,1.206,4.318,2.834,5.676,4.883V2.349h8.41v51.771c0,4.884,0.119,8.712,0.362,11.485h-7.506
	l-0.634-7.777c-1.446,2.773-3.525,4.928-6.239,6.465c-2.713,1.538-5.787,2.306-9.224,2.306c-5.546,0-10.173-2.087-13.881-6.262
	c-2.452-2.758-4.091-6.009-4.921-9.75v15.018h-8.41V29.723c-0.8-0.171-1.741-0.258-2.824-0.258c-3.045,0-5.659,1.191-7.845,3.572
	c-2.186,2.382-3.279,5.773-3.279,10.173v22.394h-8.409V35.764c0-2.743-0.029-5.244-0.085-7.506H79.68v22.788
	c0,3.045,0.489,5.238,1.467,6.579c0.981,1.342,2.542,2.012,4.681,2.012c1.959,0,3.557-0.181,4.793-0.543l0.362,6.33
	c-2.081,0.784-4.583,1.176-7.506,1.176c-8.019,0-12.028-5.002-12.028-15.01V28.257h-6.648c-2.066-0.758-4.037-1.125-7.259-1.267
	c-4.098-0.18-5.694,0.55-6.991,1.649c-1.296,1.102-1.944,2.51-1.944,4.229c0,1.538,0.55,2.834,1.65,3.888
	c1.1,1.056,3.382,2.201,6.85,3.438c4.221,1.507,7.249,3.293,9.087,5.357c1.839,2.065,2.757,4.651,2.757,7.755
	c0,3.979-1.515,7.188-4.542,9.63c-3.029,2.441-7.152,3.663-12.367,3.663c-4.405,0-9.718-1.653-12.265-4.963
	c0.074,0.565,0.508,3.465,0.6,3.969h-7.686l-0.995-5.607c-3.286,4.401-7.897,6.602-13.835,6.602c-4.16,0-8.484-1.498-10.985-3.956
	c-2.503-2.457-3.891-5.146-3.891-8.614c0-5.304,3.437-9.36,8.049-12.162c4.611-2.803,11.349-4.205,20.21-4.205v-0.815
	c0-3.104-0.852-5.523-2.555-7.257c-1.703-1.732-4.228-2.6-7.574-2.6c-4.461,0-8.439,1.115-11.937,3.345L7.282,24.82
	c4.22-2.652,9.253-3.979,15.102-3.979c5.697,0,9.999,1.567,12.908,4.703c2.909,3.135,4.363,7.656,4.363,13.563 M31.427,43.448
	c-7.054,0-11.953,0.846-14.695,2.533c-2.743,1.688-4.114,4.009-4.114,6.962c0,2.322,0.686,4.138,2.057,5.449
	c1.371,1.312,3.188,1.968,5.448,1.968c3.194,0,5.878-0.988,8.048-2.962c2.17-1.975,3.255-4.212,3.255-6.715V43.448z M157.788,39.832
	c0-3.708-1.199-6.699-3.597-8.976c-2.395-2.275-5.267-3.413-8.612-3.413c-4.069,0-7.348,1.522-9.833,4.566
	c-2.488,3.045-3.731,7.008-3.731,11.891c0,4.583,1.175,8.381,3.525,11.395c2.352,3.015,5.637,4.521,9.858,4.521
	c3.226,0,6.096-1.183,8.613-3.549c2.517-2.365,3.777-5.523,3.777-9.472V39.832z"/>
</svg>
