<?xml version="1.0" encoding="utf-8"?>
<!-- Generator: Adobe Illustrator 15.0.0, SVG Export Plug-In . SVG Version: 6.00 Build 0)  -->
<!DOCTYPE svg PUBLIC "-//W3C//DTD SVG 1.1//EN" "http://www.w3.org/Graphics/SVG/1.1/DTD/svg11.dtd">
<svg version="1.1" id="Layer_1" xmlns="http://www.w3.org/2000/svg" xmlns:xlink="http://www.w3.org/1999/xlink" x="0px" y="0px"
	 width="128px" height="60px" viewBox="0 0 128 60" enable-background="new 0 0 128 60" xml:space="preserve">
<g>
	<path fill="#B3B3B3" d="M29.432,49.423c0,2.831,0.151,5.966,0.527,8.19h-5.942l-0.526-4.482h-0.227
		c-2.031,2.562-5.942,4.854-11.133,4.854C4.761,57.985,1,53.333,1,48.614c0-7.888,7.823-12.204,21.889-12.136v-0.674
		c0-2.63-0.827-7.552-8.274-7.484c-3.461,0-6.996,0.876-9.553,2.427L3.557,26.77c3.008-1.686,7.447-2.832,12.036-2.832
		c11.132,0,13.839,6.809,13.839,13.282V49.423z M23.039,40.591c-7.221-0.136-15.42,1.011-15.42,7.349
		c0,3.909,2.858,5.662,6.168,5.662c4.814,0,7.898-2.695,8.95-5.46c0.226-0.675,0.301-1.349,0.301-1.888V40.591z"/>
	<path fill="#B3B3B3" d="M29.003,51.011c2.031,1.079,5.909,2.391,11.038,2.524c4.737,0.124,6.996-2.091,6.996-4.854
		c0-2.832-1.88-4.315-6.694-5.933c-6.621-2.157-9.704-5.327-9.704-9.238c0-5.258,4.814-9.573,12.562-9.573
		c3.686,0,6.983,0.151,8.939,1.297l-1.132,3.898c-2.501-0.005-4.573-0.813-7.958-0.813c-3.911,0-6.018,2.022-6.018,4.45
		c0,2.697,2.106,3.909,6.845,5.596c6.243,2.09,9.553,4.922,9.553,9.776c0,5.798-5.04,9.843-13.54,9.843
		c-3.986,0-7.02-0.343-11.014-0.439L29.003,51.011z"/>
	<path fill="#B3B3B3" d="M60.616,16.792v7.82h9.477v4.516h-9.477v17.597c0,4.046,1.279,6.339,4.964,6.339
		c1.806,0,3.437-0.274,4.415-0.543l0.378,4.898c-1.28,0.403-3.965,0.194-6.522,0.194c-3.085,0-5.566-0.573-7.146-2.124
		c-1.805-1.82-2.557-4.719-2.557-8.561V29.128h-5.641v-4.516h5.641v-6.068L60.616,16.792z"/>
	<path fill="#B3B3B3" d="M69.743,34.793c0-3.844-0.077-7.147-0.302-10.181h5.792l0.301,6.472h0.227
		c1.654-4.382,5.791-7.444,10.203-6.974c1.561,0.166,2.516,0.37,2.139,0.496l-0.383,5.062c-0.676-0.135-1.355-0.135-2.258-0.135
		c-4.662,0-7.973,3.102-8.875,7.55c-0.15,0.81-0.225,1.82-0.225,3.136v17.765l-6.619-0.371V34.793z"/>
	<path fill="#B3B3B3" d="M94.572,15.442c0,2.023-1.578,3.641-4.209,3.641c-2.41,0-3.988-1.618-3.988-3.641
		c0-2.022,1.654-3.708,4.137-3.708C92.918,11.735,94.572,13.353,94.572,15.442z M87.201,57.614V24.242h6.619v33.372H87.201z"/>
	<path fill="#B3B3B3" d="M126.369,9.375v39.441c0,2.9,0.15,6.573,0.301,8.798h-5.867l-0.303-6.033h-0.225
		c-1.955,3.64-6.318,6.404-12.26,6.404c-8.801,0-15.646-6.674-15.646-16.587c-0.074-10.854,7.521-17.46,16.322-17.46
		c5.643,0,9.328,2.359,10.982,4.921h0.15V9.375H126.369z M119.824,37.894c0-0.742-0.074-1.753-0.301-2.495
		c-0.979-3.708-4.588-6.809-9.553-6.809c-6.846,0-10.906,5.393-10.906,12.54c0,6.607,3.686,12.066,10.756,12.066
		c4.439,0,8.5-2.695,9.703-7.078c0.227-0.809,0.301-1.618,0.301-2.562V37.894z"/>
</g>
</svg>
